<mxfile host="app.diagrams.net" modified="2023-09-29T06:04:41.435Z" agent="Mozilla/5.0 (Windows NT 10.0; Win64; x64) AppleWebKit/537.36 (KHTML, like Gecko) Chrome/117.0.0.0 Safari/537.36 Edg/117.0.2045.36" etag="9_bcvYvCR-cYdx5jOM_7" version="22.0.0" type="device">
  <diagram name="Page-1" id="vmDosg5FzHD5MwMmB4gP">
    <mxGraphModel dx="2471" dy="1111" grid="1" gridSize="10" guides="1" tooltips="1" connect="1" arrows="1" fold="1" page="1" pageScale="1" pageWidth="850" pageHeight="1100" math="0" shadow="0">
      <root>
        <mxCell id="0" />
        <mxCell id="1" parent="0" />
        <mxCell id="Fiv0tMz3NoYfxURd-5XM-9" style="rounded=0;orthogonalLoop=1;jettySize=auto;html=1;entryX=0.5;entryY=0;entryDx=0;entryDy=0;fillColor=#1ba1e2;strokeColor=#006EAF;" edge="1" parent="1" source="Fiv0tMz3NoYfxURd-5XM-1" target="Fiv0tMz3NoYfxURd-5XM-8">
          <mxGeometry relative="1" as="geometry" />
        </mxCell>
        <mxCell id="Fiv0tMz3NoYfxURd-5XM-1" value="" style="image;aspect=fixed;perimeter=ellipsePerimeter;html=1;align=center;shadow=0;dashed=0;spacingTop=3;image=img/lib/active_directory/web_server.svg;" vertex="1" parent="1">
          <mxGeometry x="405" y="380" width="40" height="50" as="geometry" />
        </mxCell>
        <mxCell id="Fiv0tMz3NoYfxURd-5XM-2" value="&lt;font color=&quot;#000000&quot;&gt;/listener/listener01&lt;/font&gt;" style="sketch=0;aspect=fixed;pointerEvents=1;shadow=0;dashed=0;html=1;strokeColor=#2D7600;labelPosition=center;verticalLabelPosition=bottom;verticalAlign=top;align=center;fillColor=#60a917;shape=mxgraph.mscae.enterprise.plug_and_play;fontColor=#ffffff;" vertex="1" parent="1">
          <mxGeometry x="220" y="260" width="40" height="50" as="geometry" />
        </mxCell>
        <mxCell id="Fiv0tMz3NoYfxURd-5XM-3" style="rounded=0;orthogonalLoop=1;jettySize=auto;html=1;entryX=1;entryY=0.5;entryDx=0;entryDy=0;entryPerimeter=0;fillColor=#60a917;strokeColor=#2D7600;" edge="1" parent="1" source="Fiv0tMz3NoYfxURd-5XM-1" target="Fiv0tMz3NoYfxURd-5XM-2">
          <mxGeometry relative="1" as="geometry" />
        </mxCell>
        <mxCell id="Fiv0tMz3NoYfxURd-5XM-4" value="Plugin" style="edgeLabel;html=1;align=center;verticalAlign=middle;resizable=0;points=[];" vertex="1" connectable="0" parent="Fiv0tMz3NoYfxURd-5XM-3">
          <mxGeometry x="-0.0476" y="-3" relative="1" as="geometry">
            <mxPoint as="offset" />
          </mxGeometry>
        </mxCell>
        <mxCell id="Fiv0tMz3NoYfxURd-5XM-20" style="rounded=0;orthogonalLoop=1;jettySize=auto;html=1;entryX=0.5;entryY=0;entryDx=0;entryDy=0;" edge="1" parent="1" source="Fiv0tMz3NoYfxURd-5XM-5" target="Fiv0tMz3NoYfxURd-5XM-18">
          <mxGeometry relative="1" as="geometry" />
        </mxCell>
        <mxCell id="Fiv0tMz3NoYfxURd-5XM-21" style="rounded=0;orthogonalLoop=1;jettySize=auto;html=1;entryX=0.5;entryY=0;entryDx=0;entryDy=0;" edge="1" parent="1" source="Fiv0tMz3NoYfxURd-5XM-5" target="Fiv0tMz3NoYfxURd-5XM-19">
          <mxGeometry relative="1" as="geometry" />
        </mxCell>
        <mxCell id="Fiv0tMz3NoYfxURd-5XM-5" value="&lt;font color=&quot;#000000&quot;&gt;/listener/listener02&lt;/font&gt;" style="sketch=0;aspect=fixed;pointerEvents=1;shadow=0;dashed=0;html=1;strokeColor=#006EAF;labelPosition=center;verticalLabelPosition=bottom;verticalAlign=top;align=center;fillColor=#1ba1e2;shape=mxgraph.mscae.enterprise.plug_and_play;fontColor=#ffffff;" vertex="1" parent="1">
          <mxGeometry x="220" y="420" width="40" height="50" as="geometry" />
        </mxCell>
        <mxCell id="Fiv0tMz3NoYfxURd-5XM-6" style="rounded=0;orthogonalLoop=1;jettySize=auto;html=1;entryX=1;entryY=0.5;entryDx=0;entryDy=0;entryPerimeter=0;fillColor=#1ba1e2;strokeColor=#006EAF;" edge="1" parent="1" target="Fiv0tMz3NoYfxURd-5XM-5">
          <mxGeometry relative="1" as="geometry">
            <mxPoint x="415" y="415" as="sourcePoint" />
          </mxGeometry>
        </mxCell>
        <mxCell id="Fiv0tMz3NoYfxURd-5XM-7" value="Plugin" style="edgeLabel;html=1;align=center;verticalAlign=middle;resizable=0;points=[];" vertex="1" connectable="0" parent="Fiv0tMz3NoYfxURd-5XM-6">
          <mxGeometry x="-0.0476" y="-3" relative="1" as="geometry">
            <mxPoint as="offset" />
          </mxGeometry>
        </mxCell>
        <mxCell id="Fiv0tMz3NoYfxURd-5XM-17" style="rounded=0;orthogonalLoop=1;jettySize=auto;html=1;exitX=0.25;exitY=0;exitDx=0;exitDy=0;entryX=0;entryY=1;entryDx=0;entryDy=0;fillColor=#60a917;strokeColor=#2D7600;" edge="1" parent="1" source="Fiv0tMz3NoYfxURd-5XM-8" target="Fiv0tMz3NoYfxURd-5XM-1">
          <mxGeometry relative="1" as="geometry" />
        </mxCell>
        <mxCell id="Fiv0tMz3NoYfxURd-5XM-8" value="" style="image;aspect=fixed;perimeter=ellipsePerimeter;html=1;align=center;shadow=0;dashed=0;spacingTop=3;image=img/lib/active_directory/internet_cloud.svg;" vertex="1" parent="1">
          <mxGeometry x="400" y="640" width="50" height="31.5" as="geometry" />
        </mxCell>
        <mxCell id="Fiv0tMz3NoYfxURd-5XM-10" value="&lt;font color=&quot;#000000&quot;&gt;Listener Implementation&lt;br&gt;talks to /listener/listener02&lt;/font&gt;" style="sketch=0;aspect=fixed;pointerEvents=1;shadow=0;dashed=0;html=1;strokeColor=#006EAF;labelPosition=center;verticalLabelPosition=bottom;verticalAlign=top;align=center;fillColor=#1ba1e2;shape=mxgraph.mscae.enterprise.plug_and_play;fontColor=#ffffff;" vertex="1" parent="1">
          <mxGeometry x="640" y="800" width="40" height="50" as="geometry" />
        </mxCell>
        <mxCell id="Fiv0tMz3NoYfxURd-5XM-11" style="rounded=0;orthogonalLoop=1;jettySize=auto;html=1;entryX=0.5;entryY=0.825;entryDx=0;entryDy=0;entryPerimeter=0;fillColor=#1ba1e2;strokeColor=#006EAF;" edge="1" parent="1" source="Fiv0tMz3NoYfxURd-5XM-10" target="Fiv0tMz3NoYfxURd-5XM-8">
          <mxGeometry relative="1" as="geometry" />
        </mxCell>
        <mxCell id="Fiv0tMz3NoYfxURd-5XM-12" value="Listener02" style="edgeLabel;html=1;align=center;verticalAlign=middle;resizable=0;points=[];" vertex="1" connectable="0" parent="Fiv0tMz3NoYfxURd-5XM-11">
          <mxGeometry x="-0.47" y="-4" relative="1" as="geometry">
            <mxPoint y="1" as="offset" />
          </mxGeometry>
        </mxCell>
        <mxCell id="Fiv0tMz3NoYfxURd-5XM-14" style="rounded=0;orthogonalLoop=1;jettySize=auto;html=1;fillColor=#60a917;strokeColor=#2D7600;" edge="1" parent="1" source="Fiv0tMz3NoYfxURd-5XM-13" target="Fiv0tMz3NoYfxURd-5XM-8">
          <mxGeometry relative="1" as="geometry" />
        </mxCell>
        <mxCell id="Fiv0tMz3NoYfxURd-5XM-15" value="PWNED Buisness" style="image;points=[];aspect=fixed;html=1;align=center;shadow=0;dashed=0;image=img/lib/allied_telesis/buildings/Medium_Business_Building.svg;" vertex="1" parent="1">
          <mxGeometry x="-40" y="1060" width="54.6" height="70.19999999999999" as="geometry" />
        </mxCell>
        <mxCell id="Fiv0tMz3NoYfxURd-5XM-16" style="rounded=0;orthogonalLoop=1;jettySize=auto;html=1;entryX=0;entryY=0.5;entryDx=0;entryDy=0;entryPerimeter=0;fillColor=#60a917;strokeColor=#2D7600;" edge="1" parent="1" source="Fiv0tMz3NoYfxURd-5XM-15" target="Fiv0tMz3NoYfxURd-5XM-13">
          <mxGeometry relative="1" as="geometry" />
        </mxCell>
        <mxCell id="Fiv0tMz3NoYfxURd-5XM-13" value="&lt;font color=&quot;#000000&quot;&gt;Listener Implementation&lt;br&gt;talks to /listener/listener01&lt;/font&gt;" style="sketch=0;aspect=fixed;pointerEvents=1;shadow=0;dashed=0;html=1;strokeColor=#2D7600;labelPosition=center;verticalLabelPosition=bottom;verticalAlign=top;align=center;fillColor=#60a917;shape=mxgraph.mscae.enterprise.plug_and_play;fontColor=#ffffff;" vertex="1" parent="1">
          <mxGeometry x="170" y="840" width="40" height="50" as="geometry" />
        </mxCell>
        <mxCell id="Fiv0tMz3NoYfxURd-5XM-18" value="&lt;font color=&quot;#000000&quot;&gt;&lt;br&gt;&lt;br&gt;/listener/listener02/suburl&lt;/font&gt;" style="rounded=0;whiteSpace=wrap;html=1;fillColor=#1ba1e2;fontColor=#ffffff;strokeColor=#006EAF;" vertex="1" parent="1">
          <mxGeometry x="90" y="530" width="50" height="10" as="geometry" />
        </mxCell>
        <mxCell id="Fiv0tMz3NoYfxURd-5XM-19" value="&lt;br style=&quot;border-color: var(--border-color); color: rgb(0, 0, 0);&quot;&gt;&lt;br style=&quot;border-color: var(--border-color); color: rgb(0, 0, 0);&quot;&gt;&lt;font color=&quot;#000000&quot;&gt;/listener/listener02/suburl&lt;/font&gt;" style="rounded=0;whiteSpace=wrap;html=1;fillColor=#1ba1e2;fontColor=#ffffff;strokeColor=#006EAF;" vertex="1" parent="1">
          <mxGeometry x="280" y="530" width="50" height="10" as="geometry" />
        </mxCell>
      </root>
    </mxGraphModel>
  </diagram>
</mxfile>
